<svg width="18" height="26" viewBox="0 0 18 26" fill="none" xmlns="http://www.w3.org/2000/svg">
<g clip-path="url(#clip0_12_744)">
<path d="M5.10242 26C7.44795 26 9.35157 24.0587 9.35157 21.6667V17.3333H5.10242C2.75689 17.3333 0.853271 19.2747 0.853271 21.6667C0.853271 24.0587 2.75689 26 5.10242 26Z" fill="#272D2B"/>
<path d="M0.853271 13C0.853271 10.608 2.75689 8.66667 5.10242 8.66667H9.35157V17.3333H5.10242C2.75689 17.3333 0.853271 15.392 0.853271 13Z" fill="#272D2B"/>
<path d="M0.853271 4.33333C0.853271 1.94133 2.75689 0 5.10242 0H9.35157V8.66667H5.10242C2.75689 8.66667 0.853271 6.72533 0.853271 4.33333Z" fill="#272D2B"/>
<path d="M9.35156 0H13.6007C15.9462 0 17.8499 1.94133 17.8499 4.33333C17.8499 6.72533 15.9462 8.66667 13.6007 8.66667H9.35156V0Z" fill="#272D2B"/>
<path d="M17.8499 13C17.8499 15.392 15.9462 17.3333 13.6007 17.3333C11.2552 17.3333 9.35156 15.392 9.35156 13C9.35156 10.608 11.2552 8.66667 13.6007 8.66667C15.9462 8.66667 17.8499 10.608 17.8499 13Z" fill="#272D2B"/>
</g>
<defs>
<clipPath id="clip0_12_744">
<rect width="17" height="26" fill="white" transform="translate(0.851562)"/>
</clipPath>
</defs>
</svg>
