<svg width="27" height="26" viewBox="0 0 27 26" fill="none" xmlns="http://www.w3.org/2000/svg">
<rect x="0.656738" y="0.268097" width="26.3004" height="25.6092" fill="#272D2B"/>
<path d="M9.94692 7.27065C10.514 7.27065 11.0316 7.31982 11.4997 7.41713C11.9678 7.51444 12.3676 7.67425 12.7011 7.89653C13.0346 8.11882 13.2934 8.41384 13.4775 8.78261C13.6616 9.15138 13.7531 9.6062 13.7531 10.1481C13.7531 10.733 13.6164 11.2206 13.3439 11.6109C13.0714 12.0012 12.6674 12.3208 12.1341 12.5697C12.8684 12.7756 13.4165 13.1362 13.7784 13.6504C14.1403 14.1646 14.3212 14.7854 14.3212 15.5117C14.3212 16.0966 14.2044 16.6037 13.9709 17.0318C13.7373 17.46 13.4228 17.8093 13.0272 18.0798C12.6317 18.3512 12.1814 18.551 11.6754 18.6811C11.1662 18.8112 10.6413 18.8767 10.1152 18.8757H4.33862V7.27065H9.94692ZM9.61343 11.9674C10.0805 11.9674 10.4645 11.8588 10.7654 11.6426C11.0663 11.4255 11.2167 11.0741 11.2157 10.5865C11.2157 10.3161 11.1652 10.0938 11.0652 9.92068C10.9653 9.74756 10.8317 9.61132 10.6644 9.51401C10.4971 9.41669 10.3057 9.34909 10.0889 9.31118C9.86592 9.27328 9.63973 9.25382 9.4125 9.25484H6.96025V11.9694L9.61343 11.9674ZM9.76387 16.8915C10.0111 16.8925 10.2573 16.8679 10.4982 16.8188C10.7317 16.7696 10.9379 16.6887 11.1157 16.575C11.2935 16.4613 11.4355 16.3066 11.5418 16.112C11.647 15.9173 11.7006 15.6674 11.7006 15.3642C11.7006 14.769 11.5281 14.3429 11.183 14.0888C10.838 13.8338 10.3814 13.7067 9.81437 13.7067H6.96025V16.8925L9.76387 16.8915ZM17.6182 16.6477C17.9738 16.9837 18.4861 17.1517 19.1542 17.1517C19.6328 17.1517 20.0442 17.0349 20.3892 16.8024C20.7343 16.5698 20.9458 16.323 21.0236 16.0628H23.1098C22.7763 17.0708 22.2639 17.7909 21.5738 18.2242C20.8837 18.6575 20.0494 18.8747 19.07 18.8747C18.3915 18.8747 17.7792 18.7692 17.2342 18.5581C16.6893 18.3471 16.2275 18.046 15.8487 17.6557C15.47 17.2654 15.1775 16.8003 14.9724 16.2584C14.7673 15.7166 14.6642 15.1204 14.6642 14.4709C14.6642 13.843 14.7694 13.2581 14.9808 12.7162C15.1923 12.1743 15.4932 11.7062 15.8824 11.3107C16.2716 10.9153 16.7366 10.6039 17.2763 10.3765C17.816 10.1491 18.4146 10.0354 19.0711 10.0354C19.8054 10.0354 20.445 10.1737 20.991 10.4503C21.5359 10.7269 21.9841 11.0977 22.3344 11.5638C22.6847 12.0299 22.9383 12.5605 23.094 13.1567C23.2497 13.7528 23.3054 14.3757 23.2612 15.0261H17.0354C17.068 15.7708 17.2626 16.3127 17.6182 16.6477ZM20.2977 12.2276C20.0137 11.9243 19.5823 11.7727 19.0037 11.7727C18.625 11.7727 18.3105 11.8352 18.0611 11.9592C17.8107 12.0841 17.6109 12.2378 17.4604 12.4222C17.31 12.6066 17.2048 12.8012 17.1438 13.0071C17.0827 13.213 17.0459 13.3974 17.0354 13.5592H20.891C20.7785 12.9753 20.5807 12.5308 20.2977 12.2276ZM16.6293 7.85966H21.4465V9.1606H16.6293V7.85966Z" fill="white"/>
</svg>
