<svg width="26" height="25" viewBox="0 0 26 25" fill="none" xmlns="http://www.w3.org/2000/svg">
<path d="M22.1532 21.3017H18.4489V15.5006C18.4489 14.1172 18.4241 12.3364 16.5223 12.3364C14.5929 12.3364 14.2977 13.8436 14.2977 15.3998V21.3013H10.5935V9.37175H14.1495V11.002H14.1994C14.9234 9.76402 16.2747 9.02185 17.708 9.07508C21.4624 9.07508 22.1547 11.5446 22.1547 14.7574L22.1532 21.3017ZM6.41381 7.74103H6.41335C5.23408 7.74103 4.26369 6.77073 4.26369 5.59144C4.26369 4.41215 5.23408 3.44175 6.41335 3.44175C7.59251 3.44175 8.56279 4.41193 8.56302 5.591V5.59144C8.56302 6.77051 7.59285 7.74091 6.41381 7.74103ZM8.26591 21.3017H4.55778V9.37175H8.26591V21.3017ZM23.9998 0.00172474H2.69629C1.69627 -0.00956943 0.863751 0.803609 0.851562 1.80365V23.1959C0.863304 24.1965 1.69571 25.0106 2.69629 24.9999H23.9998C25.0028 25.0125 25.8381 24.1985 25.8516 23.1959V1.80219C25.8381 0.800031 25.0017 -0.0130368 23.9998 0.000158368V0.00172474Z" fill="#272D2B"/>
</svg>
