<svg width="28" height="27" viewBox="0 0 28 27" fill="none" xmlns="http://www.w3.org/2000/svg">
<path fill-rule="evenodd" clip-rule="evenodd" d="M14.3858 0.500001C11.1831 0.498964 8.08466 1.60797 5.6451 3.62846C3.20555 5.64895 1.58424 8.44899 1.07145 11.5273C0.558659 14.6055 1.18787 17.761 2.84644 20.4288C4.505 23.0966 7.08461 25.1024 10.1234 26.0871C10.7933 26.2089 11.0433 25.8023 11.0433 25.4545C11.0433 25.1414 11.0322 24.1087 11.0255 23.0108C7.27437 23.8043 6.48396 21.4628 6.48396 21.4628C5.86995 19.9409 4.98576 19.5409 4.98576 19.5409C3.76219 18.7256 5.0773 18.743 5.0773 18.743C6.43261 18.8365 7.14487 20.0953 7.14487 20.0953C8.34835 22.102 10.2998 21.5237 11.0679 21.1823C11.1907 20.3344 11.539 19.7561 11.9253 19.4278C8.94004 19.0995 5.78063 17.9733 5.78063 12.9424C5.76059 11.6358 6.25884 10.3719 7.17167 9.41386C7.031 9.0834 6.56881 7.74849 7.30117 5.93528C7.30117 5.93528 8.4332 5.58308 11.0098 7.28106C13.2207 6.69259 15.5532 6.69259 17.764 7.28106C20.3273 5.59177 21.4683 5.93528 21.4683 5.93528C22.2006 7.74414 21.7407 9.07905 21.6 9.41386C22.5103 10.3713 23.0069 11.6335 22.9866 12.9381C22.9866 17.982 19.8338 19.0908 16.8307 19.417C17.313 19.8235 17.744 20.6236 17.744 21.8476C17.744 23.6043 17.7306 25.0196 17.7306 25.4501C17.7306 25.8001 17.9717 26.2089 18.6549 26.0806C21.6893 25.0921 24.2638 23.0851 25.9183 20.4184C27.5728 17.7516 28.1994 14.5988 27.6862 11.5235C27.173 8.44825 25.5534 5.6509 23.1168 3.63145C20.6802 1.612 17.5855 0.502054 14.3858 0.500001Z" fill="#272D2B"/>
</svg>
