<svg width="33" height="21" viewBox="0 0 33 21" fill="none" xmlns="http://www.w3.org/2000/svg">
<path d="M9.81604 0.947021C10.78 0.947021 11.6599 1.03061 12.4558 1.19605C13.2517 1.36149 13.9313 1.63316 14.4982 2.01105C15.0652 2.38895 15.5051 2.89049 15.8181 3.51742C16.1311 4.14434 16.2867 4.91755 16.2867 5.83878C16.2867 6.83315 16.0542 7.66209 15.591 8.32559C15.1278 8.98908 14.441 9.53242 13.5343 9.95559C14.7826 10.3056 15.7144 10.9186 16.3296 11.7928C16.9449 12.667 17.2525 13.7224 17.2525 14.9571C17.2525 15.9514 17.054 16.8135 16.6569 17.5414C16.2599 18.2693 15.7251 18.8632 15.0527 19.3229C14.3802 19.7844 13.6147 20.124 12.7545 20.3451C11.8889 20.5663 10.9964 20.6778 10.1022 20.676H0.281738V0.947021H9.81604ZM9.2491 8.93161C10.0432 8.93161 10.696 8.74702 11.2075 8.37957C11.719 8.01038 11.9747 7.41306 11.9729 6.58413C11.9729 6.12438 11.8871 5.74648 11.7172 5.45218C11.5473 5.15787 11.3201 4.92626 11.0358 4.76082C10.7514 4.59538 10.4259 4.48044 10.0575 4.41601C9.67833 4.35157 9.29381 4.31849 8.9075 4.32023H4.73859V8.9351L9.2491 8.93161ZM9.50485 17.3028C9.92514 17.3046 10.3436 17.2628 10.7532 17.1792C11.1502 17.0956 11.5008 16.958 11.803 16.7647C12.1053 16.5714 12.3467 16.3084 12.5274 15.9776C12.7062 15.6467 12.7974 15.2218 12.7974 14.7063C12.7974 13.6945 12.5041 12.9701 11.9175 12.5382C11.3309 12.1046 10.5547 11.8886 9.59069 11.8886H4.73859V17.3046L9.50485 17.3028ZM22.8575 16.8883C23.462 17.4595 24.333 17.7451 25.4687 17.7451C26.2824 17.7451 26.9817 17.5466 27.5683 17.1513C28.155 16.756 28.5144 16.3363 28.6468 15.894H32.1933C31.6264 17.6076 30.7554 18.8318 29.5821 19.5684C28.4089 20.3051 26.9907 20.6743 25.3256 20.6743C24.172 20.6743 23.1312 20.4949 22.2047 20.1362C21.2783 19.7774 20.4932 19.2654 19.8493 18.6019C19.2055 17.9384 18.7083 17.1478 18.3595 16.2266C18.0108 15.3054 17.8355 14.2918 17.8355 13.1877C17.8355 12.1202 18.0144 11.1259 18.3738 10.2046C18.7333 9.28339 19.2448 8.48754 19.9066 7.81534C20.5683 7.14313 21.3588 6.61373 22.2763 6.22713C23.1938 5.84052 24.2114 5.64722 25.3274 5.64722C26.5757 5.64722 27.6631 5.88232 28.5913 6.35251C29.5178 6.82271 30.2796 7.45311 30.8752 8.24548C31.4708 9.03784 31.9018 9.93992 32.1665 10.9534C32.4312 11.967 32.526 13.0258 32.4508 14.1316H21.8667C21.9222 15.3977 22.253 16.3189 22.8575 16.8883ZM27.4127 9.37394C26.9299 8.85847 26.1966 8.60074 25.2129 8.60074C24.5691 8.60074 24.0343 8.70697 23.6105 8.91768C23.1848 9.13014 22.845 9.39136 22.5893 9.70482C22.3335 10.0183 22.1547 10.3492 22.0509 10.6992C21.9472 11.0492 21.8846 11.3627 21.8667 11.6378H28.4214C28.2301 10.6452 27.8938 9.88942 27.4127 9.37394ZM21.1764 1.94836H29.3657V4.16001H21.1764V1.94836Z" fill="white"/>
</svg>
