<svg width="22" height="32" viewBox="0 0 22 32" fill="none" xmlns="http://www.w3.org/2000/svg">
<g clip-path="url(#clip0_12_907)">
<path d="M6.10271 31.3118C9.00013 31.3118 11.3517 28.9972 11.3517 26.1452V20.9785H6.10271C3.20529 20.9785 0.85376 23.2932 0.85376 26.1452C0.85376 28.9972 3.20529 31.3118 6.10271 31.3118Z" fill="white"/>
<path d="M0.85376 15.8117C0.85376 12.9597 3.20529 10.645 6.10271 10.645H11.3517V20.9784H6.10271C3.20529 20.9784 0.85376 18.6637 0.85376 15.8117Z" fill="white"/>
<path d="M0.85376 5.47843C0.85376 2.62643 3.20529 0.311768 6.10271 0.311768H11.3517V10.6451H6.10271C3.20529 10.6451 0.85376 8.33043 0.85376 5.47843Z" fill="white"/>
<path d="M11.3516 0.311768H16.6005C19.4979 0.311768 21.8495 2.62643 21.8495 5.47843C21.8495 8.33043 19.4979 10.6451 16.6005 10.6451H11.3516V0.311768Z" fill="white"/>
<path d="M21.8495 15.8117C21.8495 18.6637 19.4979 20.9784 16.6005 20.9784C13.7031 20.9784 11.3516 18.6637 11.3516 15.8117C11.3516 12.9597 13.7031 10.645 16.6005 10.645C19.4979 10.645 21.8495 12.9597 21.8495 15.8117Z" fill="white"/>
</g>
<defs>
<clipPath id="clip0_12_907">
<rect width="21" height="31" fill="white" transform="translate(0.851562 0.311768)"/>
</clipPath>
</defs>
</svg>
