<svg width="32" height="31" viewBox="0 0 32 31" fill="none" xmlns="http://www.w3.org/2000/svg">
<path d="M26.9072 26.3739H22.3138V19.4124C22.3138 17.7524 22.2832 15.6155 19.9248 15.6155C17.5324 15.6155 17.1664 17.424 17.1664 19.2915V26.3733H12.5731V12.0579H16.9826V14.0142H17.0445C17.9423 12.5286 19.6179 11.638 21.3952 11.7019C26.0507 11.7019 26.9091 14.6653 26.9091 18.5206L26.9072 26.3739ZM7.39034 10.101H7.38979C5.92749 10.101 4.7242 8.93665 4.7242 7.5215C4.7242 6.10635 5.92749 4.94187 7.38979 4.94187C8.85194 4.94187 10.0551 6.10608 10.0554 7.52096V7.5215C10.0554 8.93638 8.85237 10.1009 7.39034 10.101ZM9.68695 26.3739H5.08888V12.0579H9.68695V26.3739ZM29.197 0.813837H2.78062C1.5406 0.800284 0.508278 1.7761 0.493164 2.97614V28.6469C0.507723 29.8476 1.5399 30.8245 2.78062 30.8116H29.197C30.4407 30.8268 31.4765 29.85 31.4932 28.6469V2.9744C31.4765 1.7718 30.4394 0.796123 29.197 0.811958V0.813837Z" fill="white"/>
</svg>
