<svg width="34" height="32" viewBox="0 0 34 32" fill="none" xmlns="http://www.w3.org/2000/svg">
<path fill-rule="evenodd" clip-rule="evenodd" d="M17.3956 0.123048C13.4715 0.121777 9.67514 1.48057 6.68612 3.95615C3.69709 6.43172 1.71061 9.86243 1.08232 13.634C0.454029 17.4056 1.22496 21.2719 3.25709 24.5405C5.28923 27.8091 8.44986 30.2667 12.1731 31.4733C12.9938 31.6225 13.3002 31.1243 13.3002 30.6981C13.3002 30.3145 13.2865 29.0492 13.2783 27.704C8.68236 28.6763 7.71392 25.8074 7.71392 25.8074C6.9616 23.9427 5.87826 23.4526 5.87826 23.4526C4.3791 22.4537 5.99043 22.475 5.99043 22.475C7.651 22.5895 8.52368 24.1319 8.52368 24.1319C9.99823 26.5905 12.3892 25.882 13.3303 25.4638C13.4808 24.4249 13.9075 23.7163 14.3808 23.3141C10.7232 22.9118 6.85217 21.532 6.85217 15.368C6.82762 13.767 7.43809 12.2184 8.55651 11.0446C8.38416 10.6397 7.81787 9.00415 8.71518 6.78254C8.71518 6.78254 10.1022 6.35101 13.2592 8.43143C15.968 7.71042 18.8259 7.71042 21.5347 8.43143C24.6752 6.36166 26.0732 6.78254 26.0732 6.78254C26.9705 8.99882 26.4069 10.6344 26.2346 11.0446C27.35 12.2178 27.9584 13.7642 27.9335 15.3626C27.9335 21.5426 24.0707 22.9012 20.3911 23.3008C20.9821 23.7989 21.51 24.7792 21.51 26.2789C21.51 28.4312 21.4936 30.1654 21.4936 30.6928C21.4936 31.1217 21.7891 31.6225 22.6262 31.4653C26.3441 30.2542 29.4984 27.7951 31.5256 24.5277C33.5527 21.2603 34.3205 17.3974 33.6916 13.6294C33.0628 9.86151 31.0784 6.43411 28.093 3.95981C25.1077 1.4855 21.316 0.125563 17.3956 0.123048Z" fill="white"/>
</svg>
