<svg width="156" height="31" viewBox="0 0 156 31" fill="none" xmlns="http://www.w3.org/2000/svg">
<path d="M13.9016 8.41465C13.4816 8.20465 11.1416 7.93465 10.6016 7.93465C6.16156 8.77465 0.701562 14.1746 0.701562 18.8246C0.701562 20.9546 1.75156 22.6346 3.37156 22.7846C5.65156 20.9846 8.95156 18.0746 9.94156 16.3346H10.0616L9.07156 22.5146H13.6616L13.6916 22.3646L11.7416 22.0346L13.9016 8.41465ZM9.40156 16.2446C8.56156 17.8346 5.38156 20.6846 5.02156 20.6846C4.09156 20.5946 3.70156 19.7846 3.70156 18.7646C3.70156 14.5946 6.31156 9.07465 9.79156 9.07465C10.4816 9.07465 11.1116 9.28465 11.6816 9.73465L9.40156 16.2446ZM34.8976 22.0346H34.8376C35.9476 15.9146 36.5776 12.9146 36.5776 11.6546C36.5776 9.16465 35.6176 8.20465 32.9176 7.99465C32.3776 8.14465 29.7076 9.73465 27.8476 13.7246C27.9976 12.7646 28.0876 12.1046 28.0876 11.6546C28.0876 9.16465 27.1276 8.20465 24.4276 7.99465C23.8276 8.17465 20.6176 10.0946 18.7876 15.1046H18.7276L20.2276 8.44465L19.9276 8.38465L15.9076 8.41465L15.8776 8.59465L17.3176 8.92465L15.1276 22.5146H17.8576L19.0576 15.1946C20.8576 10.5746 22.6876 10.1846 23.1976 10.1846C24.4576 10.1846 25.1176 10.9046 25.1776 12.1346C25.2076 12.7346 25.0576 13.4246 23.6176 22.5146H26.2576L26.3476 22.0646L26.4376 22.0346H26.3476L27.6376 15.0146C29.4076 10.5446 31.1776 10.1846 31.6876 10.1846C32.9476 10.1846 33.6076 10.9046 33.6676 12.1346C33.6976 12.7346 33.5476 13.4246 32.1076 22.5146H36.8176V22.3646L34.8976 22.0346ZM50.6398 8.41465C50.2198 8.20465 47.8798 7.93465 47.3398 7.93465C42.8998 8.77465 37.4398 14.1746 37.4398 18.8246C37.4398 20.9546 38.4898 22.6346 40.1098 22.7846C42.3898 20.9846 45.6898 18.0746 46.6798 16.3346H46.7998L45.8098 22.5146H50.3998L50.4298 22.3646L48.4798 22.0346L50.6398 8.41465ZM46.1398 16.2446C45.2998 17.8346 42.1198 20.6846 41.7598 20.6846C40.8298 20.5946 40.4398 19.7846 40.4398 18.7646C40.4398 14.5946 43.0498 9.07465 46.5298 9.07465C47.2198 9.07465 47.8498 9.28465 48.4198 9.73465L46.1398 16.2446ZM63.1759 22.0346H63.1459C64.2559 15.9146 64.8859 12.9146 64.8859 11.6546C64.8859 9.16465 63.9259 8.26465 61.2259 8.05465C60.6259 8.23465 57.3259 10.0946 55.4959 15.1046H55.4359L56.9359 8.44465L56.6359 8.38465L52.6459 8.41465L52.6159 8.59465L54.0259 8.95465L51.5359 22.5146H54.2659L55.7659 15.2246C57.5659 10.5746 59.4859 10.2446 59.9959 10.2446C61.2559 10.2446 61.9159 10.9046 61.9759 12.1346C62.0059 12.7346 61.8559 13.4246 60.4159 22.5146H65.0959V22.3646L63.1759 22.0346ZM81.1913 0.0146466H76.5413L76.5113 0.194648L78.5513 0.584648L76.9013 8.08465C76.2713 7.99465 75.6413 7.93465 75.3713 7.93465C70.9613 8.65465 65.9213 13.5446 65.9213 17.5646C65.9213 20.3546 66.9113 22.7246 68.8913 22.7246C71.1713 20.9246 73.6913 18.0746 74.6813 16.3346H74.8013L73.7513 22.5146H78.1313L78.1613 22.3646L76.2113 22.0346L81.1913 0.0146466ZM74.1413 16.2446C73.3013 17.8346 71.0813 20.7746 70.3613 20.7746C69.0713 20.7746 68.9213 18.7946 68.9213 17.5046C68.9213 13.3946 70.4213 9.04465 73.9613 9.04465C74.7113 9.04465 75.5813 9.28465 76.3013 9.82465L74.1413 16.2446ZM92.593 8.41465C92.173 8.20465 89.833 7.93465 89.293 7.93465C84.853 8.77465 79.393 14.1746 79.393 18.8246C79.393 20.9546 80.443 22.6346 82.063 22.7846C84.343 20.9846 87.643 18.0746 88.633 16.3346H88.753L87.763 22.5146H92.353L92.383 22.3646L90.433 22.0346L92.593 8.41465ZM88.093 16.2446C87.253 17.8346 84.073 20.6846 83.713 20.6846C82.783 20.5946 82.393 19.7846 82.393 18.7646C82.393 14.5946 85.003 9.07465 88.483 9.07465C89.173 9.07465 89.803 9.28465 90.373 9.73465L88.093 16.2446ZM108.315 8.38465V8.56465C109.695 8.56465 110.925 10.3046 110.415 11.4446L105.765 20.7146L105.735 20.8046L105.825 20.2946L104.265 8.41465H99.9448L99.9148 8.59465L101.445 8.86465L103.335 21.9746L105.345 21.6446L102.255 27.0746C101.565 28.2746 100.905 28.3946 100.305 28.3946C99.8548 28.3946 98.9248 27.9146 98.1148 27.2246L96.3148 29.4446C97.0048 29.8346 97.9648 30.2846 98.4148 30.3746C99.3448 30.1346 102.015 28.9646 102.825 27.1046L112.515 8.41465L108.315 8.38465ZM124.321 8.41465C123.901 8.20465 121.561 7.93465 121.021 7.93465C116.581 8.77465 111.121 14.1746 111.121 18.8246C111.121 20.9546 112.171 22.6346 113.791 22.7846C116.071 20.9846 119.371 18.0746 120.361 16.3346H120.481L119.491 22.5146H124.081L124.111 22.3646L122.161 22.0346L124.321 8.41465ZM119.821 16.2446C118.981 17.8346 115.801 20.6846 115.441 20.6846C114.511 20.5946 114.121 19.7846 114.121 18.7646C114.121 14.5946 116.731 9.07465 120.211 9.07465C120.901 9.07465 121.531 9.28465 122.101 9.73465L119.821 16.2446ZM136.858 22.0346H136.828C137.938 15.9146 138.568 12.9146 138.568 11.6546C138.568 9.16465 137.608 8.26465 134.908 8.05465C134.308 8.23465 131.008 10.0946 129.178 15.1046H129.118L130.618 8.44465L130.318 8.38465L126.328 8.41465L126.298 8.59465L127.708 8.95465L125.218 22.5146H127.948L129.448 15.2246C131.248 10.5746 133.168 10.2446 133.678 10.2446C134.938 10.2446 135.598 10.9046 135.658 12.1346C135.688 12.7346 135.538 13.4246 134.098 22.5146H138.778V22.3646L136.858 22.0346ZM153.613 7.96465C153.613 8.44465 153.043 8.89465 152.323 8.92465C151.603 8.95465 151.153 8.74465 150.283 8.50465C149.623 8.20465 148.813 8.05465 147.823 8.05465C144.493 8.89465 141.253 11.5346 141.253 15.1346C141.253 16.6946 141.703 17.7746 142.843 18.3446C142.033 19.0046 141.073 19.5146 140.353 20.2346C140.083 21.1646 141.043 22.1546 141.733 22.2146C142.093 22.2446 142.423 22.2746 142.723 22.3346C139.783 24.2246 138.733 25.0646 137.803 26.2346C137.803 28.0646 138.763 30.0146 142.873 30.3746C143.263 30.4346 143.653 30.4346 144.073 30.4346C145.123 30.1646 150.193 29.7146 150.553 25.5446C150.763 23.1146 148.813 21.3146 146.023 21.0446C145.873 21.0446 142.573 20.8046 142.303 20.8046C141.973 20.7746 141.643 20.6546 141.673 20.2346C141.883 19.6646 142.573 19.0046 143.173 18.4946C143.833 18.7346 144.613 18.8546 145.633 18.8546C148.933 18.1946 152.413 15.4046 152.413 12.0146C152.413 10.9346 152.113 10.0346 151.483 9.37465C151.753 9.25465 152.143 9.28465 152.503 9.34465C153.253 9.34465 154.003 9.85465 154.333 9.67465C154.663 9.46465 154.963 8.80465 155.113 8.41465L153.613 7.96465ZM145.783 18.3446C144.523 18.3446 143.983 17.5646 143.983 15.5246C143.983 12.4946 144.793 8.56465 147.523 8.56465C149.083 8.56465 149.683 9.46465 149.683 11.6546C149.683 14.6846 148.453 18.3446 145.783 18.3446ZM148.123 26.5646C147.853 29.6246 146.233 29.9846 143.323 29.7146C141.643 29.5646 140.443 28.3646 140.623 26.0846C140.773 24.4946 141.673 23.3846 143.143 22.4246C146.503 23.0846 148.273 24.8546 148.123 26.5646Z" fill="white"/>
</svg>
